<?xml version="1.0" encoding="UTF-8" standalone="no"?>
<!-- Created with Inkscape (http://www.inkscape.org/) -->

<svg
   xmlns:dc="http://purl.org/dc/elements/1.1/"
   xmlns:cc="http://creativecommons.org/ns#"
   xmlns:rdf="http://www.w3.org/1999/02/22-rdf-syntax-ns#"
   xmlns:svg="http://www.w3.org/2000/svg"
   xmlns="http://www.w3.org/2000/svg"
   xmlns:sodipodi="http://sodipodi.sourceforge.net/DTD/sodipodi-0.dtd"
   xmlns:inkscape="http://www.inkscape.org/namespaces/inkscape"
   width="139.17081"
   height="156.3987"
   id="svg2"
   version="1.1"
   inkscape:version="0.48.5 r10040"
   sodipodi:docname="flamingo-logo-small.svg"
   inkscape:export-filename="/home/joeldejesus/drafting/logos/flamingo-logo.png"
   inkscape:export-xdpi="90"
   inkscape:export-ydpi="90">
  <defs
     id="defs4" />
  <sodipodi:namedview
     id="base"
     pagecolor="#ffffff"
     bordercolor="#666666"
     borderopacity="1.0"
     inkscape:pageopacity="0.0"
     inkscape:pageshadow="2"
     inkscape:zoom="0.7"
     inkscape:cx="466.14386"
     inkscape:cy="283.62783"
     inkscape:document-units="px"
     inkscape:current-layer="layer1"
     showgrid="false"
     inkscape:window-width="1366"
     inkscape:window-height="702"
     inkscape:window-x="0"
     inkscape:window-y="27"
     inkscape:window-maximized="1"
     fit-margin-top="0"
     fit-margin-left="0"
     fit-margin-right="0"
     fit-margin-bottom="0" />
  <metadata
     id="metadata7">
    <rdf:RDF>
      <cc:Work
         rdf:about="">
        <dc:format>image/svg+xml</dc:format>
        <dc:type
           rdf:resource="http://purl.org/dc/dcmitype/StillImage" />
        <dc:title />
      </cc:Work>
    </rdf:RDF>
  </metadata>
  <g
     inkscape:label="Layer 1"
     inkscape:groupmode="layer"
     id="layer1"
     transform="translate(-173.97415,-575.47689)">
    <path
       sodipodi:type="arc"
       style="fill:#ffffff;fill-opacity:1;fill-rule:evenodd;stroke:#ff9582;stroke-width:5.5999999;stroke-linecap:butt;stroke-linejoin:miter;stroke-miterlimit:4;stroke-opacity:1;stroke-dasharray:none"
       id="path2985"
       sodipodi:cx="288.90363"
       sodipodi:cy="360.40768"
       sodipodi:rx="112.12693"
       sodipodi:ry="112.12693"
       d="m 401.03056,360.40768 c 0,61.926 -50.20094,112.12693 -112.12693,112.12693 -61.926,0 -112.12693,-50.20093 -112.12693,-112.12693 0,-61.92599 50.20093,-112.12693 112.12693,-112.12693 61.92599,0 112.12693,50.20094 112.12693,112.12693 z"
       transform="matrix(0.32151605,0,0,0.32151605,118.0404,496.55475)" />
    <path
       sodipodi:type="arc"
       style="fill:#000000;fill-opacity:1;stroke:none"
       id="path3755"
       sodipodi:cx="290.41885"
       sodipodi:cy="364.95337"
       sodipodi:rx="36.870567"
       sodipodi:ry="36.870567"
       d="m 327.28942,364.95337 c 0,20.36305 -16.50751,36.87057 -36.87057,36.87057 -20.36305,0 -36.87056,-16.50752 -36.87056,-36.87057 0,-20.36305 16.50751,-36.87057 36.87056,-36.87057 20.36306,0 36.87057,16.50752 36.87057,36.87057 z"
       transform="matrix(0.32151605,0,0,0.32151605,118.35212,495.56736)" />
    <path
       style="fill:#000000;fill-opacity:1;stroke:none"
       d="m 294.80936,652.49868 c -6.70429,-1.11856 -13.94504,-2.76143 -26.74936,-6.06925 -19.7415,-5.09994 -26.40043,-6.15878 -32.84332,-5.2224 l -0.916,0.13312 2.41671,-2.3834 c 4.34929,-4.28935 6.86859,-8.16688 9.00908,-13.86611 2.86241,-7.62139 2.92043,-17.26422 0.14966,-24.8687 -0.24335,-0.66787 -0.44244,-1.30936 -0.44244,-1.42554 0,-0.11617 0.61298,0.15393 1.36218,0.60022 6.25686,3.72719 26.98265,10.02284 51.29528,15.58142 8.48005,1.93879 9.15296,2.20314 11.20249,4.40084 2.86254,3.06951 4.06789,7.2489 3.81965,13.24412 -0.40558,9.79479 -5.23014,17.84126 -11.85787,19.77672 -1.36745,0.39932 -4.36951,0.44541 -6.44606,0.099 l 0,0 z"
       id="path3761"
       inkscape:connector-curvature="0" />
    <path
       style="fill:#ff9582;fill-opacity:1;stroke:#ff9582;stroke-width:1.28606415;stroke-miterlimit:4;stroke-opacity:1;stroke-dasharray:none"
       d="m 198.85185,731.0663 c -6.20465,-0.51466 -12.94331,-2.25821 -16.90014,-4.37272 -4.05221,-2.16547 -6.38241,-4.72195 -7.17573,-7.87254 -0.40237,-1.59793 0.0736,-8.28503 2.42992,-34.13511 2.04346,-22.41827 2.76366,-35.08831 2.58704,-45.51182 -0.082,-4.83729 -0.0457,-6.78265 0.12092,-6.47921 0.63595,1.15839 3.22326,4.30698 4.92881,5.99805 5.71781,5.66926 12.72892,9.17268 20.83785,10.41259 2.52927,0.38674 8.4877,0.33905 11.03082,-0.0883 4.89204,-0.82205 9.17508,-2.36143 13.03893,-4.68638 0.73369,-0.44148 1.37539,-0.76128 1.42599,-0.71068 0.0506,0.0506 -0.0532,0.65599 -0.23062,1.34532 -0.17743,0.68932 -0.47563,2.39011 -0.66265,3.77952 -1.02486,7.61366 -0.6662,16.24909 1.58547,38.1735 1.92283,18.72257 2.64165,29.18352 2.18834,31.84706 -0.41487,2.43776 -1.67056,4.36942 -4.1163,6.33226 -3.2611,2.6172 -8.55791,4.5252 -15.64795,5.63664 -2.85681,0.44784 -11.74032,0.63874 -15.4407,0.33181 z"
       id="path3767"
       inkscape:connector-curvature="0" />
  </g>
</svg>
